<svg xmlns="http://www.w3.org/2000/svg" viewBox="0 0 512 512" fill="none">
  <rect width="512" height="512" rx="104" fill="#0F172A"/>
  <path d="M256 92 L404 152 L404 262 C404 350 342 404 256 432 C170 404 108 350 108 262 L108 152 Z" fill="#1E293B" stroke="#334155" stroke-width="6"/>
  <path d="M256 176 C230 208 218 228 218 254 C218 284 236 306 256 314 C276 306 294 284 294 254 C294 228 282 208 256 176 Z" fill="#DC2626"/>
  <path d="M244 244 C240 254 238 262 238 270 C238 282 246 290 256 292 C266 290 274 282 274 270 C274 262 272 254 268 244 C264 252 260 258 256 258 C252 258 248 252 244 244 Z" fill="#F97316"/>
  <path d="M208 328 L242 358 L320 278" stroke="#16A34A" stroke-width="18" stroke-linecap="round" stroke-linejoin="round" fill="none"/>
</svg>
